<?xml version="1.0" encoding="UTF-8"?>
<svg xmlns="http://www.w3.org/2000/svg" style="stroke-dasharray:none; shape-rendering:auto; font-family:'Arial'; text-rendering:auto; fill-opacity:1; color-interpolation:auto; color-rendering:auto; font-size:12; fill:black; stroke:black; image-rendering:auto; stroke-miterlimit:10; stroke-linecap:square; stroke-linejoin:miter; font-style:normal; stroke-width:1; stroke-dashoffset:0; font-weight:normal; stroke-opacity:1;" contentScriptType="text/ecmascript" preserveAspectRatio="xMidYMid meet" zoomAndPan="magnify" version="1.0" contentStyleType="text/css" xml:xlink="http://www.w3.org/1999/xlink" width="1181" height="561"><rect x="10" y="11" width="1171" height="550" ry="0" rx="0" style="stroke:#000000; fill:#FFFFFF" /><rect x="40" y="148" width="1141" height="137" ry="0" rx="0" style="stroke:#000000; fill:#82B0B7" /><g componentSequence="5"><text x="-216" y="47" transform="rotate(270)" text-anchor="middle" style="font-weight:bold;font-size:10px;stroke:none; fill:#434343"><tspan dy="14" x="-216">DIretoria Imediata</tspan></text></g><rect x="40" y="422" width="1141" height="139" ry="0" rx="0" style="stroke:#000000; fill:#E6FFFF" /><g componentSequence="4"><text x="-491" y="47" transform="rotate(270)" text-anchor="middle" style="font-weight:bold;font-size:10px;stroke:none; fill:#434343"><tspan dy="14" x="-491">USO</tspan></text></g><rect x="40" y="285" width="1141" height="137" ry="0" rx="0" style="stroke:#000000; fill:#C0C0C0" /><g componentSequence="3"><text x="-353" y="47" transform="rotate(270)" text-anchor="middle" style="font-weight:bold;font-size:10px;stroke:none; fill:#434343"><tspan dy="14" x="-353">POLIPRINT</tspan></text></g><rect x="40" y="11" width="1141" height="137" ry="0" rx="0" style="stroke:#000000; fill:#9F9F9F" /><g componentSequence="2"><text x="-79" y="47" transform="rotate(270)" text-anchor="middle" style="font-weight:bold;font-size:10px;stroke:none; fill:#434343"><tspan dy="14" x="-79">Demandante</tspan></text></g><g componentSequence="1"><text x="-286" y="17" transform="rotate(270)" text-anchor="middle" style="font-weight:bold;font-size:10px;stroke:none; fill:#434343"><tspan dy="14" x="-286">Reprografia</tspan></text></g><g sequence="4"><ellipse cx="117" cy="77" rx="17" ry="17" stroke-width="1" style="fill:url(#linearGradient66FF6696FF96B6FFB6_1325301280);" stroke="336633" /></g><g sequence="6"><rect x="250" y="42" width="106" height="70" ry="5" rx="5" style="fill:url(#linearGradientF8FBFEEDF5FCDEEDFAD4E7F8E2E5E9_1077516687);" stroke="191970" /></g><g componentSequence="6"><text x="303" y="57" text-anchor="middle" style="font-weight:bold;font-size:10px;stroke:none; fill:#333399"><tspan dy="14" x="303">Aprovação do</tspan><tspan dy="14" x="303">Superior</tspan></text></g><g sequence="8"><rect x="250" y="328" width="106" height="56" ry="5" rx="5" style="fill:url(#linearGradientF8FBFEEDF5FCDEEDFAD4E7F8E2E5E9_1141249360);" stroke="191970" /></g><g componentSequence="8"><text x="303" y="345" text-anchor="middle" style="font-weight:bold;font-size:10px;stroke:none; fill:#333399"><tspan dy="14" x="303">Análise - USO</tspan></text></g><g sequence="12"><ellipse cx="1117" cy="77" rx="17" ry="17" stroke-width="3" style="fill:url(#linearGradientFF6666FF9696FFB6B6_17077172);" stroke="993333" /></g><g sequence="14"><rect x="250" y="443" width="106" height="98" ry="5" rx="5" style="fill:url(#linearGradientF8FBFEEDF5FCDEEDFAD4E7F8E2E5E9_1010229962);" stroke="191970" /></g><g componentSequence="14"><text x="303" y="458" text-anchor="middle" style="font-weight:bold;font-size:10px;stroke:none; fill:#333399"><tspan dy="14" x="303">Poliprint -</tspan><tspan dy="14" x="303">Requisição de</tspan><tspan dy="14" x="303">Serviço</tspan><tspan dy="14" x="303">(Produção)</tspan></text></g><g sequence="19"><rect x="920" y="327" width="106" height="56" ry="5" rx="5" style="fill:url(#linearGradientF8FBFEEDF5FCDEEDFAD4E7F8E2E5E9_810545442);" stroke="191970" /></g><g componentSequence="19"><text x="973" y="344" text-anchor="middle" style="font-weight:bold;font-size:10px;stroke:none; fill:#333399"><tspan dy="14" x="973">Logística - USO</tspan></text></g><g sequence="22"><polygon points=" 570 334 600 304 630 334 600 364 570 334" style="fill:url(#linearGradientFAFBFCFFFFCC_1150803694);" stroke="000000" /></g><g componentSequence="22"><text x="600" y="374" text-anchor="middle" style="font-weight:bold;font-size:10px;stroke:none; fill:#333399"><tspan dy="14" x="600">Conferê</tspan><tspan dy="14" x="600">ncia</tspan></text></g><g sequence="25"><rect x="920" y="50" width="106" height="56" ry="5" rx="5" style="fill:url(#linearGradientF8FBFEEDF5FCDEEDFAD4E7F8E2E5E9_1630235899);" stroke="191970" /></g><g componentSequence="25"><text x="973" y="67" text-anchor="middle" style="font-weight:bold;font-size:10px;stroke:none; fill:#333399"><tspan dy="14" x="973">Avaliar Serviço</tspan></text></g><g sequence="31"><rect x="410" y="42" width="106" height="70" ry="5" rx="5" style="fill:url(#linearGradientF8FBFEEDF5FCDEEDFAD4E7F8E2E5E9_1786831526);" stroke="191970" /></g><g componentSequence="31"><text x="463" y="57" text-anchor="middle" style="font-weight:bold;font-size:10px;stroke:none; fill:#333399"><tspan dy="14" x="463">Correção/Ajuste</tspan><tspan dy="14" x="463">s</tspan></text></g><g sequence="46"><rect x="730" y="43" width="106" height="70" ry="5" rx="5" style="fill:url(#linearGradientF8FBFEEDF5FCDEEDFAD4E7F8E2E5E9_629786677);" stroke="191970" /></g><g componentSequence="46"><text x="783" y="58" text-anchor="middle" style="font-weight:bold;font-size:10px;stroke:none; fill:#333399"><tspan dy="14" x="783">Revisão de</tspan><tspan dy="14" x="783">Material</tspan></text></g><g sequence="47"><rect x="730" y="320" width="106" height="70" ry="5" rx="5" style="fill:url(#linearGradientF8FBFEEDF5FCDEEDFAD4E7F8E2E5E9_1603474116);" stroke="191970" /></g><g componentSequence="47"><text x="783" y="335" text-anchor="middle" style="font-weight:bold;font-size:10px;stroke:none; fill:#333399"><tspan dy="14" x="783">Revisão de</tspan><tspan dy="14" x="783">Material - USO</tspan></text></g><g sequence="53"><ellipse cx="577" cy="76" rx="17" ry="17" stroke-width="3" style="fill:url(#linearGradientFF6666FF9696FFB6B6_1701179769);" stroke="993333" /></g><g sequence="53"><polygon points=" 568 72 573 67 578 72 583 67 588 72 583 77 588 82 583 87 578 82 573 87 568 82 573 77" style="stroke:none; fill:#993333" /></g><g sequence="58"><polygon points=" 120 197 150 167 180 197 150 227 120 197" style="fill:url(#linearGradientFAFBFCFFFFCC_144554657);" stroke="000000" /></g><g componentSequence="58"><text x="150" y="230" text-anchor="middle" style="font-weight:bold;font-size:10px;stroke:none; fill:#333399"><tspan dy="14" x="150">Enviar</tspan></text></g><g sequence="59"><rect x="250" y="176" width="106" height="70" ry="5" rx="5" style="fill:url(#linearGradientF8FBFEEDF5FCDEEDFAD4E7F8E2E5E9_1673401319);" stroke="191970" /></g><g componentSequence="59"><text x="303" y="191" text-anchor="middle" style="font-weight:bold;font-size:10px;stroke:none; fill:#333399"><tspan dy="14" x="303">Aprovação da</tspan><tspan dy="14" x="303">Diretoria</tspan></text></g><g componentSequence="7"><text x="202" y="77" style="font-size:10px;font-weight:none;stroke:none; fill:#333399" text-anchor="left" /></g><g componentSequence="15"><text x="313" y="413" style="font-size:10px;font-weight:none;stroke:none; fill:#333399" text-anchor="left" /></g><g componentSequence="27"><text x="1073" y="77" style="font-size:10px;font-weight:none;stroke:none; fill:#333399" text-anchor="left" /></g><g componentSequence="28"><text x="983" y="216" style="font-size:10px;font-weight:none;stroke:none; fill:#333399" text-anchor="left" /></g><g componentSequence="29"><text x="313" y="413" style="font-size:10px;font-weight:none;stroke:none; fill:#333399" text-anchor="left" /></g><g componentSequence="32"><text x="472" y="287" style="font-size:10px;font-weight:none;stroke:none; fill:#333399" text-anchor="left" /></g><g componentSequence="33"><text x="393" y="77" style="font-size:10px;font-weight:none;stroke:none; fill:#333399" text-anchor="left" /></g><g componentSequence="48"><text x="690" y="355" style="font-size:10px;font-weight:none;stroke:none; fill:#333399" text-anchor="left" /></g><g componentSequence="49"><text x="888" y="355" style="font-size:10px;font-weight:none;stroke:none; fill:#333399" text-anchor="left" /></g><g componentSequence="50"><text x="502" y="452" style="font-size:10px;font-weight:none;stroke:none; fill:#333399" text-anchor="left" /></g><g componentSequence="51"><text x="610" y="126" style="font-size:10px;font-weight:none;stroke:none; fill:#333399" text-anchor="left" /></g><g componentSequence="52"><text x="888" y="78" style="font-size:10px;font-weight:none;stroke:none; fill:#333399" text-anchor="left" /></g><g componentSequence="56"><text x="437" y="300" style="font-size:10px;font-weight:none;stroke:none; fill:#333399" text-anchor="left" /></g><g componentSequence="60"><text x="225" y="211" style="font-size:10px;font-weight:none;stroke:none; fill:#333399" text-anchor="left" /></g><g componentSequence="61"><text x="160" y="355" style="font-size:10px;font-weight:none;stroke:none; fill:#333399" text-anchor="left" /></g><g componentSequence="62"><text x="313" y="287" style="font-size:10px;font-weight:none;stroke:none; fill:#333399" text-anchor="left" /></g><g componentSequence="63"><text x="226" y="130" style="font-size:10px;font-weight:none;stroke:none; fill:#333399" text-anchor="left" /></g><g componentSequence="64"><text x="461" y="19" style="font-size:10px;font-weight:none;stroke:none; fill:#333399" text-anchor="left" /></g><g componentSequence="65"><text x="96" y="304" style="font-size:10px;font-weight:none;stroke:none; fill:#333399" text-anchor="left" /></g><path style="fill:none; stroke:#000000;stroke-width:1" d="M135.0 77.0 L249.0 77.0" /><polygon style="fill:#000000; stroke:#000000;" points=" 239 72 249 77 239 82 241 77" /><path style="fill:none; stroke:#000000;stroke-width:1" d="M300.0 112.0 L298.0 130.0 L152.0 130.0 L151.0 166.0" /><polygon style="fill:#000000; stroke:#000000;" points=" 156 156 151 166 146 156 151 158" /><path style="fill:none; stroke:#000000;stroke-width:1" d="M303.0 41.0 L303.0 19.0 L581.0 19.0 L578.0 59.0" /><polygon style="fill:#000000; stroke:#000000;" points=" 584 49 578 59 574 49 579 51" /><path style="fill:none; stroke:#000000;stroke-width:1" d="M249.0 87.0 L86.0 120.0 L86.0 491.0 L249.0 491.0" /><polygon style="fill:#000000; stroke:#000000;" points=" 239 486 249 491 239 496 241 491" /><path style="fill:none; stroke:#000000;stroke-width:1" d="M409.0 77.0 L356.0 77.0" /><polygon style="fill:#000000; stroke:#000000;" points=" 366 82 356 77 366 72 364 77" /><path style="fill:none; stroke:#000000;stroke-width:1" d="M303.0 384.0 L303.0 442.0" /><polygon style="fill:#000000; stroke:#000000;" points=" 308 432 303 442 298 432 303 434" /><path style="fill:none; stroke:#000000;stroke-width:1" d="M356.0 356.0 L462.0 356.0 L462.0 112.0" /><polygon style="fill:#000000; stroke:#000000;" points=" 457 122 462 112 467 122 462 120" /><path style="fill:none; stroke:#000000;stroke-width:1" d="M303.0 442.0 L303.0 384.0" /><polygon style="fill:#000000; stroke:#000000;" points=" 298 394 303 384 308 394 303 392" /><path style="fill:none; stroke:#000000;stroke-width:1" d="M150.0 255.0 L150.0 355.0 L249.0 355.0" /><polygon style="fill:#000000; stroke:#000000;" points=" 239 350 249 355 239 360 241 355" /><path style="fill:none; stroke:#000000;stroke-width:1" d="M303.0 246.0 L303.0 327.0" /><polygon style="fill:#000000; stroke:#000000;" points=" 308 317 303 327 298 317 303 319" /><path style="fill:none; stroke:#000000;stroke-width:1" d="M1026.0 77.0 L1100.0 77.0" /><polygon style="fill:#000000; stroke:#000000;" points=" 1090 72 1100 77 1090 82 1092 77" /><path style="fill:none; stroke:#000000;stroke-width:1" d="M356.0 491.0 L492.0 491.0 L492.0 354.0 L569.0 354.0" /><polygon style="fill:#000000; stroke:#000000;" points=" 559 349 569 354 559 359 561 354" /><path style="fill:none; stroke:#000000;stroke-width:1" d="M356.0 490.0 L416.0 489.0 L416.0 300.0 L495.0 300.0 L495.0 207.0 L495.0 139.0 L481.0 112.0" /><polygon style="fill:#000000; stroke:#000000;" points=" 481 123 481 112 490 119 485 119" /><path style="fill:none; stroke:#000000;stroke-width:1" d="M973.0 326.0 L973.0 106.0" /><polygon style="fill:#000000; stroke:#000000;" points=" 968 116 973 106 978 116 973 114" /><path style="fill:none; stroke:#000000;stroke-width:1" d="M836.0 355.0 L919.0 355.0" /><polygon style="fill:#000000; stroke:#000000;" points=" 909 350 919 355 909 360 911 355" /><path style="fill:none; stroke:#000000;stroke-width:1" d="M630.0 355.0 L729.0 355.0" /><polygon style="fill:#000000; stroke:#000000;" points=" 719 350 729 355 719 360 721 355" /><path style="fill:none; stroke:#000000;stroke-width:1" d="M600.0 303.0 L600.0 78.0 L729.0 78.0" /><polygon style="fill:#000000; stroke:#000000;" points=" 719 73 729 78 719 83 721 78" /><path style="fill:none; stroke:#000000;stroke-width:1" d="M836.0 78.0 L919.0 78.0" /><polygon style="fill:#000000; stroke:#000000;" points=" 909 73 919 78 909 83 911 78" /><path style="fill:none; stroke:#000000;stroke-width:1" d="M180.0 211.0 L249.0 211.0" /><polygon style="fill:#000000; stroke:#000000;" points=" 239 206 249 211 239 216 241 211" /><defs><linearGradient xmlns:xlink="http://www.w3.org/1999/xlink" xlink:href="#linearGradient66FF6696FF96B6FFB6" id="linearGradient66FF6696FF96B6FFB6_1325301280" x1="0" y1="60.0" x2="0" y2="95.0" gradientUnits="userSpaceOnUse" xlink:type="simple" xlink:actuate="onLoad" xlink:show="other" /><linearGradient id="linearGradient66FF6696FF96B6FFB6"><stop style="stop-color:#66FF66;stop-opacity:1;" offset="0.0" id="stop66FF66" /><stop style="stop-color:#96FF96;stop-opacity:1;" offset="0.5" id="stop96FF96" /><stop style="stop-color:#B6FFB6;stop-opacity:1;" offset="1.0" id="stopB6FFB6" /></linearGradient><linearGradient xmlns:xlink="http://www.w3.org/1999/xlink" xlink:href="#linearGradientF8FBFEEDF5FCDEEDFAD4E7F8E2E5E9" id="linearGradientF8FBFEEDF5FCDEEDFAD4E7F8E2E5E9_1077516687" x1="0" y1="42.0" x2="0" y2="148.0" gradientUnits="userSpaceOnUse" xlink:type="simple" xlink:actuate="onLoad" xlink:show="other" /><linearGradient id="linearGradientF8FBFEEDF5FCDEEDFAD4E7F8E2E5E9"><stop style="stop-color:#F8FBFE;stop-opacity:1;" offset="0.0" id="stopF8FBFE" /><stop style="stop-color:#EDF5FC;stop-opacity:1;" offset="0.25" id="stopEDF5FC" /><stop style="stop-color:#DEEDFA;stop-opacity:1;" offset="0.5" id="stopDEEDFA" /><stop style="stop-color:#D4E7F8;stop-opacity:1;" offset="0.75" id="stopD4E7F8" /><stop style="stop-color:#E2E5E9;stop-opacity:1;" offset="1.0" id="stopE2E5E9" /></linearGradient><linearGradient xmlns:xlink="http://www.w3.org/1999/xlink" xlink:href="#linearGradientF8FBFEEDF5FCDEEDFAD4E7F8E2E5E9" id="linearGradientF8FBFEEDF5FCDEEDFAD4E7F8E2E5E9_1141249360" x1="0" y1="328.0" x2="0" y2="434.0" gradientUnits="userSpaceOnUse" xlink:type="simple" xlink:actuate="onLoad" xlink:show="other" /><linearGradient xmlns:xlink="http://www.w3.org/1999/xlink" xlink:href="#linearGradientFF6666FF9696FFB6B6" id="linearGradientFF6666FF9696FFB6B6_17077172" x1="0" y1="60.0" x2="0" y2="95.0" gradientUnits="userSpaceOnUse" xlink:type="simple" xlink:actuate="onLoad" xlink:show="other" /><linearGradient id="linearGradientFF6666FF9696FFB6B6"><stop style="stop-color:#FF6666;stop-opacity:1;" offset="0.0" id="stopFF6666" /><stop style="stop-color:#FF9696;stop-opacity:1;" offset="0.5" id="stopFF9696" /><stop style="stop-color:#FFB6B6;stop-opacity:1;" offset="1.0" id="stopFFB6B6" /></linearGradient><linearGradient xmlns:xlink="http://www.w3.org/1999/xlink" xlink:href="#linearGradientF8FBFEEDF5FCDEEDFAD4E7F8E2E5E9" id="linearGradientF8FBFEEDF5FCDEEDFAD4E7F8E2E5E9_1010229962" x1="0" y1="443.0" x2="0" y2="549.0" gradientUnits="userSpaceOnUse" xlink:type="simple" xlink:actuate="onLoad" xlink:show="other" /><linearGradient xmlns:xlink="http://www.w3.org/1999/xlink" xlink:href="#linearGradientF8FBFEEDF5FCDEEDFAD4E7F8E2E5E9" id="linearGradientF8FBFEEDF5FCDEEDFAD4E7F8E2E5E9_810545442" x1="0" y1="327.0" x2="0" y2="433.0" gradientUnits="userSpaceOnUse" xlink:type="simple" xlink:actuate="onLoad" xlink:show="other" /><linearGradient xmlns:xlink="http://www.w3.org/1999/xlink" xlink:href="#linearGradientFAFBFCFFFFCC" id="linearGradientFAFBFCFFFFCC_1150803694" x1="0" y1="304.0" x2="0" y2="364.0" gradientUnits="userSpaceOnUse" xlink:type="simple" xlink:actuate="onLoad" xlink:show="other" /><linearGradient id="linearGradientFAFBFCFFFFCC"><stop style="stop-color:#FAFBFC;stop-opacity:1;" offset="0.0" id="stopFAFBFC" /><stop style="stop-color:#FFFFCC;stop-opacity:1;" offset="1.0" id="stopFFFFCC" /></linearGradient><linearGradient xmlns:xlink="http://www.w3.org/1999/xlink" xlink:href="#linearGradientF8FBFEEDF5FCDEEDFAD4E7F8E2E5E9" id="linearGradientF8FBFEEDF5FCDEEDFAD4E7F8E2E5E9_1630235899" x1="0" y1="50.0" x2="0" y2="156.0" gradientUnits="userSpaceOnUse" xlink:type="simple" xlink:actuate="onLoad" xlink:show="other" /><linearGradient xmlns:xlink="http://www.w3.org/1999/xlink" xlink:href="#linearGradientF8FBFEEDF5FCDEEDFAD4E7F8E2E5E9" id="linearGradientF8FBFEEDF5FCDEEDFAD4E7F8E2E5E9_1786831526" x1="0" y1="42.0" x2="0" y2="148.0" gradientUnits="userSpaceOnUse" xlink:type="simple" xlink:actuate="onLoad" xlink:show="other" /><linearGradient xmlns:xlink="http://www.w3.org/1999/xlink" xlink:href="#linearGradientF8FBFEEDF5FCDEEDFAD4E7F8E2E5E9" id="linearGradientF8FBFEEDF5FCDEEDFAD4E7F8E2E5E9_629786677" x1="0" y1="43.0" x2="0" y2="149.0" gradientUnits="userSpaceOnUse" xlink:type="simple" xlink:actuate="onLoad" xlink:show="other" /><linearGradient xmlns:xlink="http://www.w3.org/1999/xlink" xlink:href="#linearGradientF8FBFEEDF5FCDEEDFAD4E7F8E2E5E9" id="linearGradientF8FBFEEDF5FCDEEDFAD4E7F8E2E5E9_1603474116" x1="0" y1="320.0" x2="0" y2="426.0" gradientUnits="userSpaceOnUse" xlink:type="simple" xlink:actuate="onLoad" xlink:show="other" /><linearGradient xmlns:xlink="http://www.w3.org/1999/xlink" xlink:href="#linearGradientFF6666FF9696FFB6B6" id="linearGradientFF6666FF9696FFB6B6_1701179769" x1="0" y1="59.0" x2="0" y2="94.0" gradientUnits="userSpaceOnUse" xlink:type="simple" xlink:actuate="onLoad" xlink:show="other" /><linearGradient xmlns:xlink="http://www.w3.org/1999/xlink" xlink:href="#linearGradientFAFBFCFFFFCC" id="linearGradientFAFBFCFFFFCC_144554657" x1="0" y1="167.0" x2="0" y2="227.0" gradientUnits="userSpaceOnUse" xlink:type="simple" xlink:actuate="onLoad" xlink:show="other" /><linearGradient xmlns:xlink="http://www.w3.org/1999/xlink" xlink:href="#linearGradientF8FBFEEDF5FCDEEDFAD4E7F8E2E5E9" id="linearGradientF8FBFEEDF5FCDEEDFAD4E7F8E2E5E9_1673401319" x1="0" y1="176.0" x2="0" y2="282.0" gradientUnits="userSpaceOnUse" xlink:type="simple" xlink:actuate="onLoad" xlink:show="other" /></defs></svg>
